<svg width="198" height="264" viewBox="0 0 198 264" fill="none" xmlns="http://www.w3.org/2000/svg">
<path d="M58.6559 199.915V198.707C58.8017 195.388 57.8137 192.118 55.8534 189.431C53.6602 186.859 50.6534 185.109 47.3284 184.468L46.807 184.39C45.1629 184.007 43.4767 183.832 41.7885 183.871C40.2585 183.913 38.7357 184.096 37.2393 184.416L31.2301 185.599C29.0924 186.014 26.9198 186.404 24.7126 186.768C22.6671 187.12 20.5965 187.307 18.5209 187.326C14.7198 187.246 10.9461 186.665 7.29769 185.599L9.10957 195.992C15.3998 197.786 22.0585 197.862 28.3885 196.213C32.8334 195.03 36.9786 193.173 41.6712 193.614C45.0603 193.939 46.8853 196.29 46.8853 199.59C46.9025 200.025 46.8719 200.461 46.794 200.889H0.597656V208.386H25.0906V222.468C25.0299 224.17 25.4021 225.859 26.1725 227.379C26.816 228.616 27.7026 229.712 28.7795 230.601C29.8199 231.415 31.0116 232.015 32.286 232.368C33.4476 232.692 34.6405 232.892 35.8445 232.965L37.8259 233.056C39.1043 233.049 40.379 232.919 41.6321 232.667C42.8893 232.426 44.1336 232.122 45.3601 231.757C46.5072 231.419 47.55 231.056 48.4755 230.692C49.1925 230.415 49.8857 230.081 50.5481 229.691L50.1962 231.16C49.8016 232.754 49.192 234.288 48.3843 235.72C47.5729 237.15 46.5188 238.429 45.2689 239.5C43.96 240.611 42.4698 241.489 40.863 242.098C39.0354 242.785 37.0936 243.12 35.1406 243.086L33.5895 243.008C30.8108 242.76 28.0929 242.053 25.5468 240.916C23.3788 239.905 21.4372 238.469 19.8374 236.694C18.3019 234.95 17.1398 232.912 16.4223 230.705C15.6512 228.335 15.2726 225.856 15.3012 223.365L15.3794 220.766H2.76148C2.93528 222.611 3.20902 224.651 3.58269 226.885C3.99081 229.237 4.61477 231.546 5.44671 233.784C6.36105 236.248 7.53651 238.609 8.95314 240.825C10.5189 243.275 12.4584 245.467 14.7016 247.321C19.2639 251.218 23.9174 253.946 33.6155 254.531H34.3064C38.8711 254.432 43.3767 253.48 47.5891 251.725C50.5863 250.293 53.2503 248.253 55.4102 245.736C57.5094 243.284 59.1237 240.459 60.168 237.408C61.2154 234.458 61.7574 231.353 61.7713 228.223C61.7713 227.769 61.7713 227.314 61.7713 226.924C61.7713 226.535 61.6931 226.054 61.641 225.625L53.8199 217.181C51.395 218.487 48.8218 219.499 46.1553 220.195C44.036 220.752 41.886 221.186 39.716 221.494L37.0307 221.832V208.36H63.8569V200.863H58.6429C58.686 200.549 58.6903 200.231 58.6559 199.915Z" fill="#4D4D4F"/>
<path d="M143.944 200.863H108.971V208.19C106.605 205.979 103.829 204.249 100.798 203.098C96.6944 201.557 92.3295 200.825 87.9456 200.941C80.9719 200.941 75.5362 202.007 66.1379 206.891L71.1564 217.934L73.0726 219.051C74.4785 219.959 75.7323 221.081 76.7876 222.377C78.3549 224.264 79.6372 226.369 80.5938 228.626L72.6816 232.199L79.8639 241.591L108.971 226.21V254.505H121.094V208.359H128.015V254.505H140.125V208.359H147.047L148.52 208.879C149.626 209.313 150.709 209.803 151.765 210.347C153.052 211.009 154.266 211.801 155.389 212.711C156.58 213.669 157.645 214.774 158.557 215.998C159.463 217.209 160.082 218.608 160.369 220.091V220.87C160.326 221.508 160.167 222.133 159.899 222.715C159.432 223.665 158.733 224.482 157.866 225.092C156.48 226.067 154.943 226.808 153.317 227.288C150.712 228.067 148.027 228.546 145.313 228.717L151.192 240.695L154.659 240.877C155.585 240.877 156.575 241.072 157.644 241.176C162.402 241.602 167.02 243.007 171.207 245.301C175.393 247.595 179.057 250.729 181.968 254.505H193.295V208.359H197.362V200.863H143.944ZM91.0741 223.455C90.2186 221.518 89.2524 219.631 88.1803 217.804C87.1755 216.038 85.8494 214.474 84.2697 213.192C86.2397 212.838 88.2381 212.664 90.2398 212.672C92.6442 212.697 95.034 213.046 97.3439 213.712C99.7934 214.383 102.087 215.527 104.096 217.077L91.0741 223.455ZM181.968 238.032C181.022 237.154 179.991 236.371 178.891 235.693C177.77 235.005 176.636 234.394 175.515 233.849C174.454 233.336 173.356 232.902 172.231 232.549C171.162 232.199 170.249 231.939 169.506 231.77L166.391 231.081C168.792 230.01 170.823 228.256 172.231 226.041C173.107 224.495 173.594 222.761 173.651 220.987C173.66 220.306 173.59 219.626 173.443 218.96C173.299 218.363 173.169 217.83 173.052 217.375L172.791 216.765C172.741 216.721 172.709 216.661 172.7 216.596L172.53 215.985C171.9 214.653 171.145 213.383 170.275 212.192C169.28 210.795 168.12 209.521 166.821 208.398H181.968V238.032Z" fill="#4D4D4F"/>
<path d="M164.449 248.035C162.374 248.035 160.385 248.856 158.918 250.318C157.452 251.78 156.628 253.763 156.628 255.83C156.628 257.897 157.452 259.88 158.918 261.342C160.385 262.804 162.374 263.625 164.449 263.625C166.523 263.625 168.512 262.804 169.979 261.342C171.446 259.88 172.27 257.897 172.27 255.83C172.27 253.763 171.446 251.78 169.979 250.318C168.512 248.856 166.523 248.035 164.449 248.035Z" fill="#4D4D4F"/>
<path d="M172.7 49.5392C177.547 49.5418 182.286 48.1115 186.318 45.4294C190.35 42.7472 193.493 38.9336 195.35 34.4709C197.206 30.0083 197.694 25.0971 196.749 20.3584C195.805 15.6198 193.472 11.2667 190.046 7.84961C186.619 4.43257 182.252 2.10512 177.498 1.16167C172.744 0.218212 167.816 0.701127 163.338 2.54933C158.859 4.39754 155.031 7.528 152.338 11.5448C149.644 15.5615 148.207 20.2842 148.207 25.1153C148.214 31.5886 150.796 37.7949 155.387 42.3735C159.979 46.952 166.205 49.5289 172.7 49.5392Z" fill="#034EA2"/>
<path d="M25.1036 49.5392C29.9504 49.5392 34.6884 48.1068 38.7184 45.4231C42.7484 42.7393 45.8894 38.9248 47.7442 34.462C49.599 29.9991 50.0843 25.0882 49.1387 20.3505C48.1931 15.6127 45.8592 11.2608 42.4319 7.84502C39.0047 4.42927 34.6382 2.10312 29.8845 1.16072C25.1308 0.218314 20.2035 0.701989 15.7256 2.55058C11.2477 4.39916 7.42041 7.52964 4.72766 11.5461C2.03491 15.5626 0.597656 20.2847 0.597656 25.1153C0.60111 31.5919 3.18409 37.8022 7.7791 42.3818C12.3741 46.9615 18.6053 49.5358 25.1036 49.5392Z" fill="#FFCB05"/>
<path d="M186.647 63.4399H162.819C160.02 63.4434 157.336 64.5532 155.357 66.5259C153.378 68.4986 152.264 71.1732 152.261 73.963V83.7196C152.261 111.002 134.298 122.109 122.215 126.591L121.498 126.838L120.768 127.098C113.884 129.568 106.615 130.8 99.2991 130.736C104.644 130.715 109.778 132.811 113.572 136.563C117.366 140.315 119.509 145.416 119.53 150.742C119.55 156.069 117.447 161.186 113.682 164.967C109.918 168.749 104.8 170.884 99.4555 170.905C119.621 171.048 132.161 167.358 133.607 166.917C149.25 163.188 162.167 156.666 172.191 147.274C188.785 131.684 197.206 108.845 197.206 79.2765V73.963C197.199 71.1742 196.084 68.5016 194.106 66.5297C192.127 64.5577 189.445 63.4468 186.647 63.4399Z" fill="#034EA2"/>
<path d="M99.1041 130.697C91.1013 130.68 83.1622 129.278 75.641 126.552C63.5575 122.122 45.6603 110.963 45.6603 83.6806V73.963C45.6534 71.1742 44.5388 68.5016 42.5602 66.5297C40.5816 64.5577 37.9 63.4468 35.1019 63.4399H11.2086C8.41041 63.4468 5.72883 64.5577 3.75024 66.5297C1.77164 68.5016 0.65703 71.1742 0.650146 73.963V79.2505C0.650146 108.819 9.07081 131.697 25.6514 147.248C35.6363 156.602 48.541 163.11 64.0398 166.839H63.7139L65.617 167.229C69.9211 168.184 74.272 168.917 78.6521 169.424C85.2224 170.29 91.8385 170.768 98.4654 170.853H99.4952C104.757 170.682 109.743 168.467 113.388 164.681C117.033 160.894 119.048 155.838 119.002 150.591C118.956 145.344 116.853 140.323 113.142 136.601C109.432 132.878 104.407 130.75 99.1433 130.671L99.1041 130.697Z" fill="#FFCB05"/>
</svg>
